<svg width="158" height="18" viewBox="0 0 158 18" fill="none" xmlns="http://www.w3.org/2000/svg">
<path d="M6.45 17.32C5.71667 17.32 5.02667 17.25 4.38 17.11C3.73333 16.9767 3.14333 16.8 2.61 16.58C2.08333 16.36 1.61667 16.1267 1.21 15.88C0.81 15.6333 0.486667 15.4 0.24 15.18L2.17 11.94C2.43 12.1333 2.72333 12.3367 3.05 12.55C3.38333 12.7633 3.74 12.96 4.12 13.14C4.5 13.32 4.89667 13.4667 5.31 13.58C5.72333 13.6933 6.14 13.75 6.56 13.75C6.96 13.75 7.30333 13.6933 7.59 13.58C7.87667 13.4667 8.1 13.2967 8.26 13.07C8.42 12.8433 8.5 12.56 8.5 12.22C8.5 11.9067 8.42667 11.6367 8.28 11.41C8.14 11.1767 7.92333 10.96 7.63 10.76C7.33667 10.56 6.96333 10.3533 6.51 10.14C6.06333 9.92 5.53333 9.67 4.92 9.39C4.46667 9.17667 4.04333 8.93333 3.65 8.66C3.25667 8.38667 2.91333 8.07667 2.62 7.73C2.32667 7.38333 2.1 7 1.94 6.58C1.78 6.16 1.7 5.7 1.7 5.2C1.7 4.55333 1.83 3.93333 2.09 3.34C2.35667 2.74667 2.73333 2.21333 3.22 1.74C3.71333 1.26667 4.3 0.893332 4.98 0.619999C5.66667 0.339999 6.42667 0.199999 7.26 0.199999C7.84 0.199999 8.43667 0.269999 9.05 0.41C9.67 0.549999 10.26 0.736666 10.82 0.97C11.38 1.20333 11.8633 1.46667 12.27 1.76L10.71 4.83C10.39 4.61 10.04 4.41667 9.66 4.25C9.28667 4.07667 8.90333 3.94333 8.51 3.85C8.11667 3.75667 7.73 3.71 7.35 3.71C6.95667 3.71 6.62 3.77 6.34 3.89C6.06667 4.00333 5.85333 4.16667 5.7 4.38C5.55333 4.58667 5.48 4.83 5.48 5.11C5.48 5.31667 5.52333 5.49667 5.61 5.65C5.69667 5.79667 5.82667 5.93 6 6.05C6.18 6.16333 6.40333 6.28 6.67 6.4C6.93667 6.52 7.25 6.65333 7.61 6.8C8.42333 7.15333 9.15 7.5 9.79 7.84C10.43 8.17333 10.9667 8.54 11.4 8.94C11.84 9.34 12.17 9.8 12.39 10.32C12.6167 10.8333 12.73 11.44 12.73 12.14C12.73 13.2267 12.47 14.1567 11.95 14.93C11.4367 15.7033 10.71 16.2967 9.77 16.71C8.83 17.1167 7.72333 17.32 6.45 17.32ZM32.4033 17.32C30.2699 17.32 28.6533 16.8033 27.5533 15.77C26.4599 14.73 25.9133 13.1933 25.9133 11.16V0.499999H29.7733V10.03C29.7733 11.31 29.9699 12.2133 30.3633 12.74C30.7633 13.2667 31.4399 13.53 32.3933 13.53C33.3533 13.53 34.0299 13.2667 34.4233 12.74C34.8233 12.2133 35.0233 11.31 35.0233 10.03V0.499999H38.8833V11.16C38.8833 13.1933 38.3366 14.73 37.2433 15.77C36.1499 16.8033 34.5366 17.32 32.4033 17.32ZM53.2758 17V0.499999H57.1258L63.6058 10.59V0.499999H67.4558V17H63.6058L57.1258 6.91V17H53.2758ZM82.6147 17V0.499999H87.2947C88.388 0.499999 89.3347 0.689999 90.1347 1.07C90.9347 1.45 91.5514 1.99667 91.9847 2.71C92.4247 3.41667 92.6447 4.26667 92.6447 5.26C92.6447 6.12667 92.4747 6.89667 92.1347 7.57C91.7947 8.24333 91.308 8.79333 90.6747 9.22C90.048 9.64667 89.298 9.92667 88.4247 10.06L93.8847 17H91.3047L86.1947 10.27H84.6447V17H82.6147ZM84.6447 8.54H86.7447C87.5314 8.54 88.208 8.41 88.7747 8.15C89.3414 7.89 89.778 7.52 90.0847 7.04C90.3914 6.55333 90.5447 5.97667 90.5447 5.31C90.5447 4.31667 90.208 3.54 89.5347 2.98C88.868 2.42 87.938 2.14 86.7447 2.14H84.6447V8.54ZM107.431 17V0.499999H109.461V17H107.431ZM128.859 17.32C128.032 17.32 127.296 17.2067 126.649 16.98C126.002 16.7467 125.446 16.4633 124.979 16.13C124.512 15.7967 124.129 15.47 123.829 15.15C123.529 14.8233 123.309 14.5667 123.169 14.38L124.279 12.8C124.432 12.9867 124.639 13.2267 124.899 13.52C125.159 13.8133 125.479 14.1067 125.859 14.4C126.239 14.6933 126.682 14.94 127.189 15.14C127.696 15.34 128.269 15.44 128.909 15.44C129.516 15.44 130.066 15.3333 130.559 15.12C131.052 14.9067 131.446 14.59 131.739 14.17C132.039 13.75 132.189 13.23 132.189 12.61C132.189 12.0833 132.082 11.6367 131.869 11.27C131.656 10.8967 131.359 10.5767 130.979 10.31C130.599 10.0433 130.156 9.8 129.649 9.58C129.142 9.35333 128.596 9.12667 128.009 8.9C127.596 8.73333 127.176 8.54 126.749 8.32C126.322 8.09333 125.929 7.82 125.569 7.5C125.209 7.17333 124.919 6.78667 124.699 6.34C124.479 5.89333 124.369 5.36667 124.369 4.76C124.369 4.14667 124.486 3.56667 124.719 3.02C124.952 2.47333 125.282 1.99 125.709 1.57C126.136 1.14333 126.642 0.809999 127.229 0.569999C127.822 0.323332 128.479 0.199999 129.199 0.199999C129.839 0.199999 130.442 0.299999 131.009 0.499999C131.582 0.699999 132.092 0.956666 132.539 1.27C132.986 1.57667 133.342 1.9 133.609 2.24L132.659 3.73C132.439 3.44333 132.159 3.17333 131.819 2.92C131.479 2.66 131.089 2.45 130.649 2.29C130.209 2.13 129.736 2.05 129.229 2.05C128.609 2.05 128.082 2.18 127.649 2.44C127.222 2.69333 126.896 3.02333 126.669 3.43C126.442 3.83667 126.329 4.27 126.329 4.73C126.329 5.14333 126.412 5.49333 126.579 5.78C126.752 6.06667 126.982 6.31 127.269 6.51C127.556 6.71 127.879 6.88667 128.239 7.04C128.599 7.19333 128.969 7.34 129.349 7.48C130.029 7.74667 130.672 8.02333 131.279 8.31C131.886 8.59 132.419 8.92 132.879 9.3C133.339 9.67333 133.699 10.1233 133.959 10.65C134.226 11.1767 134.359 11.8133 134.359 12.56C134.359 13.5667 134.119 14.4267 133.639 15.14C133.166 15.8467 132.516 16.3867 131.689 16.76C130.862 17.1333 129.919 17.32 128.859 17.32ZM148.841 17V0.499999H157.411V2.29H150.871V7.84H157.171V9.62H150.871V15.21H157.411V17H148.841Z" fill="#141516"/>
</svg>
